# xmcd CD database file
#
# Track frame offsets:
#	150
#	15131
#	25495
#	37317
#	49980
#	61695
#	76560
#	89952
#	98165
#	107031
#	119916
#	128753
#
# Disc length: 1972 seconds
#
# Revision: 0
# Processed by: cddbd v1.5.1PL2 Copyright (c) Steve Scherf et al.
# Submitted via: CDex 1.51
#
DISCID=9d07b20c
DTITLE=Various Artist - Velvet Martini
DYEAR=2005
DGENRE=Jazz
TTITLE0=Lena Horne - One For My Baby
TTITLE1=Tony Bennett - Anything Goes
TTITLE2=Rosemary Clooney - Witchcraft
TTITLE3=Dean Martin - Wham! Bam! Thank You Ma'am
TTITLE4=Ray Charles - Hit the Road Jack (live)
TTITLE5=Glenn Miller and His Orchestra - Moonlight Cocktail
TTITLE6=Marilyn Monroe - I Wanna Be Loved By You
TTITLE7=Peffy Lee - Slumming on Park Avenue
TTITLE8=Al Martino - Three Little Words
TTITLE9=Ella Fitzgerald - I Got It Bad And That Ain't Good
TTITLE10=Mel Torme - I've Got the World On a String
TTITLE11=Bing Crosby with Louis Armstrong and Frances Langford - Pennies From Heaven
EXTD=YEAR: 2005
EXTT0=
EXTT1=
EXTT2=
EXTT3=
EXTT4=
EXTT5=
EXTT6=
EXTT7=
EXTT8=
EXTT9=
EXTT10=
EXTT11=
PLAYORDER=
